<svg version="1.1" id="Layer_1" xmlns="http://www.w3.org/2000/svg" xmlns:xlink="http://www.w3.org/1999/xlink" x="0px" y="0px"
	 viewBox="0 0 40.8 40.8" style="enable-background:new 0 0 40.8 40.8;" xml:space="preserve">
<path d="M5.2,5.3c2.8,0,5.6,0,8.4-0.1c7.1,0,14.1,0,21.2,0c0.5,0,0.9,0,1.5,0c0,10.3,0,20.5,0,30.8c-10.4,0-20.7,0-31,0
	C5.2,25.8,5.2,15.6,5.2,5.3z M34.2,7.2c-3,0-5.9,0-8.8,0C23,7.2,20.5,7.1,18,7c-0.3,0-0.8-0.1-0.9,0c-0.8,0.9-1.5,0.3-2.3,0.2
	C14.2,7,13.3,6.8,13.1,7c-0.8,1-1.9,0.6-2.8,0.9C9.9,8.1,9.4,8.1,9,8.2c-1.4,0.3-1.9,0.9-1.8,2.3c0.1,2.3,0.2,4.7,0.2,7
	c0,5.1,0,10.2,0,15.3c0,1,0.4,1.4,1.3,1.4c1.2,0.1,2.5,0.2,3.7,0.2c2.9,0,5.9-0.2,8.8-0.2c1.5,0,3.1,0.6,4.5-0.5
	c0.1-0.1,0.2,0,0.4,0c2.2,0.1,4.5,0.2,6.7,0.2c1.2,0,1.6-0.6,1.6-1.8c0-3.1,0-6.1,0-9.2C34.2,17.8,34.2,12.7,34.2,7.2z"/>
<path d="M10.2,22.3c2.7,0,5.3,0,7.9,0c0.9,0,0.9,0.6,0.9,1.2c0,2.8,0,5.6,0,8.5c-1.4,0.1-2.9,0.3-4.4,0.3c-1.2,0-2.4-0.1-3.5-0.3
	c-0.3,0-0.8-0.4-0.9-0.7c-0.1-2.8-0.2-5.5-0.2-8.3C10.1,22.7,10.2,22.4,10.2,22.3z M12.1,25.2c0,1.1-0.1,2.2,0,3.3
	c0,0.3,0.6,0.8,1,0.9c0.9,0.1,1.9,0,2.9,0c0.8,0,1-0.5,0.9-1.1c-0.2-1.1,0.6-2.3-0.7-3.1c-0.1,0-0.2,0-0.2,0
	C14.8,25.2,13.6,25.2,12.1,25.2z"/>
<path d="M27.9,32.1c-1.7,0-3.4,0-5.1,0c-0.7,0-1-0.3-1-0.9c0-2.6,0-5.2,0-7.9c0-0.8,0.4-1.1,1.2-1c2.2,0,4.4,0,6.7-0.1
	c1,0,1.3,0.6,1.3,1.3c0.1,2.4,0.2,4.7,0.2,7.1c0,1-0.4,1.5-1.4,1.4C29.1,32,28.5,32.1,27.9,32.1z M23.7,25.1c0,1.6,0,2.9,0,4.4
	c1.7,0,3.2,0,4.9,0c0-1.1-0.1-2.1,0-3.1c0.1-1-0.4-1.6-1.2-1.6C26.2,24.8,25,25,23.7,25.1z"/>
<path d="M22,10.2c3.1,0,6,0,9.1,0c0,3,0,5.9,0,8.7c0,0.3-0.6,0.8-1,0.8c-2.5,0-4.9-0.1-7.4-0.2c-0.3,0-0.7-0.5-0.7-0.9
	C22,16,22,13.2,22,10.2z M24.2,12.6c0,1.3-0.1,2.5,0,3.6c0,0.4,0.6,0.9,1,1c1,0.1,2,0.1,3,0c0.2,0,0.6-0.3,0.7-0.5
	c0.2-1.3,0.3-2.6,0.4-3.9C27.5,12.7,25.9,12.6,24.2,12.6z"/>
<path d="M19.1,10.2c0,2.9,0,5.8,0,8.6c0,0.3-0.6,0.8-1,0.8c-1.1,0.1-2.3,0-3.4-0.1c-1,0-2.1,0-3.1,0c-0.8,0-1.2-0.4-1.3-1.2
	c-0.1-2.3-0.2-4.7-0.2-7c0-0.5,0.1-1.1,0.8-1.2C13.7,9.8,16.5,9.7,19.1,10.2z M17.1,12.8c-1.4-0.1-2.5-0.2-3.6-0.3
	c-0.8-0.1-1.3,0.4-1.3,1.1c-0.1,0.9,0,1.8,0,2.7c0,0.6,0.3,0.9,1,0.9c0.8,0,1.7,0,2.5,0c0.9,0,1.5-0.4,1.5-1.4
	C17.1,14.8,17.1,13.8,17.1,12.8z"/>
</svg>
